<svg width="1440" height="1024" viewBox="0 0 1440 1024" fill="none" xmlns="http://www.w3.org/2000/svg">
<rect width="1440" height="1024" fill="url(#paint0_linear_5_9)"></rect>
<g filter="url(#filter0_d_5_9)">
<mask id="path-1-inside-1_5_9" fill="white">
<path d="M731.475 341.067C758.641 339.67 789.2 341.626 816.281 343.92L769.453 413.954C735.219 411.527 699.316 411.827 665.248 416.127C623.709 421.37 555.149 437.042 540.792 482.395C571.319 482.861 603.014 482.418 633.637 482.418C626.943 505.678 620.454 528.994 614.172 552.37L557.785 552.355C561.655 559.046 564.833 566.108 567.271 573.442C576.794 602.254 574.579 633.656 561.105 660.847C546.194 690.347 521.087 710.184 490.006 720.459C462.858 728.349 433.741 725.81 408.369 713.336C380.4 699.703 359.017 675.484 348.953 646.04C340.776 621.881 340.964 595.668 349.488 571.629C351.957 564.743 354.984 558.83 358.232 552.315L313.396 552.275L313.384 482.481C370.305 482.382 434.801 458.358 479.492 424.143C488.424 417.305 497.036 410.053 505.937 403.295C520.243 392.488 535.623 383.181 551.835 375.522C605.219 350.489 673.099 342.823 731.475 341.067ZM514.871 602.54C510.925 571.183 482.319 548.952 450.957 552.867C419.553 556.787 397.286 585.438 401.236 616.84C405.188 648.238 433.86 670.479 465.256 666.499C496.611 662.523 518.818 633.897 514.871 602.54Z"></path>
</mask>
<path d="M731.475 341.067C758.641 339.67 789.2 341.626 816.281 343.92L769.453 413.954C735.219 411.527 699.316 411.827 665.248 416.127C623.709 421.37 555.149 437.042 540.792 482.395C571.319 482.861 603.014 482.418 633.637 482.418C626.943 505.678 620.454 528.994 614.172 552.37L557.785 552.355C561.655 559.046 564.833 566.108 567.271 573.442C576.794 602.254 574.579 633.656 561.105 660.847C546.194 690.347 521.087 710.184 490.006 720.459C462.858 728.349 433.741 725.81 408.369 713.336C380.4 699.703 359.017 675.484 348.953 646.04C340.776 621.881 340.964 595.668 349.488 571.629C351.957 564.743 354.984 558.83 358.232 552.315L313.396 552.275L313.384 482.481C370.305 482.382 434.801 458.358 479.492 424.143C488.424 417.305 497.036 410.053 505.937 403.295C520.243 392.488 535.623 383.181 551.835 375.522C605.219 350.489 673.099 342.823 731.475 341.067ZM514.871 602.54C510.925 571.183 482.319 548.952 450.957 552.867C419.553 556.787 397.286 585.438 401.236 616.84C405.188 648.238 433.86 670.479 465.256 666.499C496.611 662.523 518.818 633.897 514.871 602.54Z" fill="#8A35CA"></path>
<path d="M731.475 341.067L731.505 342.066L731.515 342.066L731.526 342.066L731.475 341.067ZM816.281 343.92L817.113 344.476L818.055 343.067L816.366 342.924L816.281 343.92ZM769.453 413.954L769.382 414.951L769.962 414.992L770.284 414.509L769.453 413.954ZM665.248 416.127L665.373 417.12H665.373L665.248 416.127ZM540.792 482.395L539.839 482.093L539.433 483.374L540.777 483.395L540.792 482.395ZM633.637 482.418L634.598 482.695L634.965 481.418H633.637V482.418ZM614.172 552.37L614.172 553.37L614.939 553.37L615.138 552.629L614.172 552.37ZM557.785 552.355L557.785 551.355L556.051 551.355L556.919 552.856L557.785 552.355ZM567.271 573.442L568.22 573.128L568.219 573.126L567.271 573.442ZM561.105 660.847L561.998 661.298L562.001 661.291L561.105 660.847ZM490.006 720.459L490.285 721.419L490.302 721.414L490.32 721.408L490.006 720.459ZM408.369 713.336L408.81 712.439L408.807 712.438L408.369 713.336ZM348.953 646.04L348.006 646.36L348.007 646.363L348.953 646.04ZM349.488 571.629L348.547 571.292L348.546 571.295L349.488 571.629ZM358.232 552.315L359.127 552.761L359.848 551.316L358.233 551.315L358.232 552.315ZM313.396 552.275L312.396 552.275L312.396 553.274L313.395 553.275L313.396 552.275ZM313.384 482.481L313.382 481.481L312.384 481.483L312.384 482.481L313.384 482.481ZM479.492 424.143L480.1 424.937L480.1 424.937L479.492 424.143ZM505.937 403.295L505.334 402.498L505.332 402.499L505.937 403.295ZM551.835 375.522L551.41 374.617L551.408 374.618L551.835 375.522ZM514.871 602.54L513.879 602.664V602.664L514.871 602.54ZM450.957 552.867L451.081 553.859V553.859L450.957 552.867ZM401.236 616.84L400.244 616.965L400.244 616.965L401.236 616.84ZM465.256 666.499L465.382 667.491V667.491L465.256 666.499ZM731.475 341.067L731.526 342.066C758.62 340.673 789.122 342.622 816.197 344.917L816.281 343.92L816.366 342.924C789.279 340.629 758.662 338.668 731.423 340.068L731.475 341.067ZM816.281 343.92L815.45 343.365L768.622 413.398L769.453 413.954L770.284 414.509L817.113 344.476L816.281 343.92ZM769.453 413.954L769.524 412.956C735.238 410.526 699.268 410.825 665.123 415.135L665.248 416.127L665.373 417.12C699.364 412.829 735.2 412.528 769.382 414.951L769.453 413.954ZM665.248 416.127L665.123 415.135C644.313 417.762 616.685 423.005 592.436 433.299C568.216 443.581 547.15 458.997 539.839 482.093L540.792 482.395L541.745 482.697C548.791 460.44 569.184 445.343 593.218 435.14C617.223 424.95 644.644 419.736 665.373 417.12L665.248 416.127ZM540.792 482.395L540.777 483.395C571.313 483.861 603.034 483.418 633.637 483.418V482.418V481.418C602.994 481.418 571.325 481.861 540.807 481.395L540.792 482.395ZM633.637 482.418L632.676 482.142C625.98 505.407 619.49 528.729 613.206 552.11L614.172 552.37L615.138 552.629C621.419 529.259 627.905 505.949 634.598 482.695L633.637 482.418ZM614.172 552.37L614.172 551.37L557.785 551.355L557.785 552.355L557.785 553.355L614.172 553.37L614.172 552.37ZM557.785 552.355L556.919 552.856C560.755 559.488 563.905 566.488 566.322 573.757L567.271 573.442L568.219 573.126C565.76 565.729 562.554 558.604 558.651 551.854L557.785 552.355ZM567.271 573.442L566.321 573.756C575.762 602.318 573.566 633.448 560.209 660.403L561.105 660.847L562.001 661.291C575.591 633.865 577.826 602.19 568.22 573.128L567.271 573.442ZM561.105 660.847L560.213 660.396C545.434 689.634 520.551 709.308 489.692 719.509L490.006 720.459L490.32 721.408C521.623 711.06 546.954 691.06 561.998 661.298L561.105 660.847ZM490.006 720.459L489.727 719.498C462.818 727.319 433.958 724.802 408.81 712.439L408.369 713.336L407.928 714.234C433.523 726.817 462.897 729.379 490.285 721.419L490.006 720.459ZM408.369 713.336L408.807 712.438C381.077 698.921 359.877 674.909 349.899 645.716L348.953 646.04L348.007 646.363C358.157 676.059 379.723 700.486 407.931 714.235L408.369 713.336ZM348.953 646.04L349.9 645.719C341.795 621.773 341.982 595.791 350.431 571.964L349.488 571.629L348.546 571.295C339.947 595.545 339.757 621.989 348.006 646.36L348.953 646.04ZM349.488 571.629L350.43 571.967C352.874 565.148 355.872 559.292 359.127 552.761L358.232 552.315L357.337 551.869C354.097 558.368 351.04 564.338 348.547 571.292L349.488 571.629ZM358.232 552.315L358.233 551.315L313.396 551.275L313.396 552.275L313.395 553.275L358.232 553.315L358.232 552.315ZM313.396 552.275L314.396 552.275L314.384 482.481L313.384 482.481L312.384 482.481L312.396 552.275L313.396 552.275ZM313.384 482.481L313.386 483.481C370.547 483.381 435.252 459.271 480.1 424.937L479.492 424.143L478.884 423.349C434.349 457.444 370.063 481.382 313.382 481.481L313.384 482.481ZM479.492 424.143L480.1 424.937C484.577 421.51 488.972 417.98 493.351 414.469C497.734 410.956 502.103 407.461 506.541 404.092L505.937 403.295L505.332 402.499C500.869 405.887 496.482 409.397 492.101 412.909C487.716 416.423 483.34 419.938 478.884 423.349L479.492 424.143ZM505.937 403.295L506.539 404.093C520.791 393.327 536.113 384.056 552.262 376.426L551.835 375.522L551.408 374.618C535.134 382.306 519.695 391.649 505.334 402.498L505.937 403.295ZM551.835 375.522L552.26 376.427C605.452 351.484 673.162 343.821 731.505 342.066L731.475 341.067L731.445 340.067C673.036 341.824 604.986 349.494 551.41 374.617L551.835 375.522ZM514.871 602.54L515.863 602.415C511.848 570.51 482.743 547.891 450.833 551.874L450.957 552.867L451.081 553.859C481.896 550.012 510.002 571.855 513.879 602.664L514.871 602.54ZM450.957 552.867L450.833 551.874C418.881 555.863 396.224 585.015 400.244 616.965L401.236 616.84L402.229 616.716C398.347 585.862 420.226 557.711 451.081 553.859L450.957 552.867ZM401.236 616.84L400.244 616.965C404.265 648.911 433.437 671.541 465.382 667.491L465.256 666.499L465.13 665.507C434.282 669.417 406.111 647.564 402.229 616.715L401.236 616.84ZM465.256 666.499L465.382 667.491C497.284 663.446 519.879 634.319 515.863 602.415L514.871 602.54L513.879 602.664C517.756 633.474 495.938 661.6 465.13 665.507L465.256 666.499Z" fill="url(#paint1_linear_5_9)" style="mix-blend-mode:hard-light" mask="url(#path-1-inside-1_5_9)"></path>
<path d="M700.028 442.939C707.181 442.063 717.845 442.094 728.374 443.083C738.673 444.05 748.776 445.928 755.316 448.733C746.112 470.298 727.332 517.106 711.196 563.696C703.071 587.156 695.614 610.569 690.386 630.678C685.165 650.765 682.149 667.626 682.955 677.947C683.167 680.66 684.285 683.704 686.596 685.472V685.473C688.331 686.805 690.376 686.96 692.368 686.555C695.987 685.819 699.598 683.773 703.072 680.972C706.55 678.169 709.92 674.585 713.058 670.733C719.335 663.029 724.726 654.203 728.241 648.267V648.266C730.488 644.468 733.249 640.308 734.627 635.987C735.821 632.25 736.63 627.132 737.344 621.942C738.062 616.73 738.684 611.441 739.504 607.292L739.505 607.293C744.437 583.083 751.91 559.465 761.8 536.824C764.01 531.762 766.176 526.262 769.259 521.769L769.559 521.338C774.25 514.736 782.04 512.6 789.852 511.26C797.658 509.925 808.974 509.267 819.973 510.177C830.995 511.09 841.596 513.571 848.055 518.436C848.54 518.801 849.266 519.364 849.861 519.997C850.158 520.312 850.409 520.632 850.581 520.939C850.753 521.248 850.827 521.511 850.818 521.726C850.818 521.728 850.817 521.737 850.814 521.752C850.81 521.771 850.805 521.798 850.796 521.833C850.777 521.902 850.746 521.992 850.705 522.104C850.622 522.328 850.499 522.618 850.34 522.968C850.021 523.668 849.566 524.585 849.012 525.654C847.907 527.791 846.422 530.516 844.89 533.297C841.837 538.837 838.574 544.631 837.793 546.328V546.329C831.997 558.933 820.824 586.369 811.652 613.858C807.066 627.603 802.976 641.371 800.309 653.31C797.731 664.854 796.465 674.758 797.409 681.283L797.507 681.904C797.868 684.003 798.708 686.495 800.838 687.718L800.84 687.719C802.22 688.505 804.194 688.484 805.588 688.142C808.546 687.417 811.353 685.289 813.821 682.847C816.297 680.397 818.487 677.571 820.198 675.38L820.199 675.38C842.514 646.822 859.21 602.137 873.127 567.626L874.465 564.319C878.888 553.442 885.193 536.217 891.152 526.628C893.471 522.89 897.321 520.192 901.674 518.191C906.022 516.192 910.825 514.908 914.996 513.971C922.639 512.261 933.297 512.037 943.732 513.351C954.173 514.666 964.312 517.51 970.95 521.88V521.881C971.551 522.281 972.351 522.915 972.988 523.644C973.64 524.391 974.043 525.149 974.024 525.806C974.022 525.88 973.989 526.05 973.893 526.345C973.802 526.627 973.667 526.983 973.492 527.406C973.141 528.252 972.639 529.343 972.029 530.606C970.81 533.131 969.17 536.319 967.469 539.562C964.075 546.033 960.428 552.747 959.462 554.763C953.71 566.743 942.265 592.685 932.926 618.535C928.256 631.459 924.109 644.371 921.465 655.509C920.142 661.078 919.194 666.212 918.744 670.688C918.295 675.157 918.34 679.001 919.027 681.976V681.977C919.541 684.189 920.538 686.682 922.816 687.905V687.906C925.108 689.14 927.846 688.635 930.025 687.921H930.026C933.888 686.651 938.265 683.434 942.725 679.152C947.197 674.859 951.798 669.45 956.104 663.733C964.711 652.308 972.188 639.593 975.135 632H975.136C976.937 627.354 978.222 621.388 979.359 615.355C980.5 609.302 981.488 603.187 982.699 598.167L982.7 598.168C989.479 570.679 997.882 543.613 1007.86 517.118L1008.83 514.555C1011.3 508.099 1013.86 500.915 1016.8 494.716V494.715C1018.27 491.627 1021.01 489.56 1024.25 488.026C1027.49 486.492 1031.17 485.522 1034.48 484.588C1043.1 482.351 1056.67 481.454 1069.78 482.792C1076.33 483.46 1082.74 484.685 1088.35 486.572C1093.84 488.418 1098.52 490.888 1101.81 494.06C1097.6 506.125 1091.6 518.058 1086.48 529.869V529.87C1079.3 546.439 1066.77 575.071 1055.95 603.603C1050.55 617.869 1045.57 632.118 1041.9 644.827C1038.24 657.525 1035.87 668.725 1035.72 676.88C1035.69 678.476 1035.67 680.294 1035.99 682.015C1036.3 683.742 1036.96 685.418 1038.33 686.701H1038.33C1039.94 688.218 1042.1 688.728 1044.19 688.583L1044.6 688.545C1049.29 688.023 1054.44 684.769 1059.62 680.057C1064.82 675.33 1070.12 669.067 1075.11 662.4C1085.08 649.065 1093.86 634.055 1098.14 626.329H1098.14C1099.9 623.151 1101.53 619.471 1103.26 615.948C1104.98 612.441 1106.8 609.066 1108.98 606.348C1109.27 606.213 1109.48 606.109 1109.59 606.053C1109.66 606.019 1109.7 606.005 1109.72 606C1109.73 606.003 1109.78 606.016 1109.94 606.071C1110.1 606.127 1110.33 606.205 1110.67 606.303C1112.19 608.094 1112.56 610.275 1112.73 612.739C1113.08 617.756 1111.64 624.239 1109.04 631.43C1106.44 638.61 1102.69 646.447 1098.46 654.155C1090 669.574 1079.63 684.43 1072.7 692.409C1059.31 707.852 1041.21 722.95 1020.08 724.327C1009.32 725.027 999.211 722.26 991.111 715.031H991.11C977.509 702.897 974.672 683.975 973.693 666.531L973.594 664.777L972.755 666.32C965.185 680.228 954.038 695.828 940.404 707.356C926.77 718.884 910.7 726.3 893.253 723.969C882.533 722.536 873.884 717.462 867.455 708.851C854.937 692.086 852.895 665.558 855.674 645.405L854.726 645.122C845.601 664.31 836.557 680.406 823.368 697.698C815.332 708.235 803.856 717.647 791.395 722.033C778.953 726.411 765.544 725.779 753.53 716.272C740.292 705.799 735.846 687.437 734.276 670.884L734.142 669.468L733.361 670.657C720.438 690.3 704.942 710.492 682.891 720.041C672.678 724.464 659.639 726.462 649.14 722.239C638.847 718.095 631.793 708.984 627.616 698.894C617.623 674.759 619.661 639.082 626.183 603.335C632.7 567.617 643.67 531.944 651.437 507.884C657.847 488.03 664.569 467.899 672.539 448.63C680.59 444.492 690.935 443.703 700.01 442.941H700.018L700.028 442.939Z" fill="#8A35CA"></path>
<path d="M700.028 442.939C707.181 442.063 717.845 442.094 728.374 443.083C738.673 444.05 748.776 445.928 755.316 448.733C746.112 470.298 727.332 517.106 711.196 563.696C703.071 587.156 695.614 610.569 690.386 630.678C685.165 650.765 682.149 667.626 682.955 677.947C683.167 680.66 684.285 683.704 686.596 685.472V685.473C688.331 686.805 690.376 686.96 692.368 686.555C695.987 685.819 699.598 683.773 703.072 680.972C706.55 678.169 709.92 674.585 713.058 670.733C719.335 663.029 724.726 654.203 728.241 648.267V648.266C730.488 644.468 733.249 640.308 734.627 635.987C735.821 632.25 736.63 627.132 737.344 621.942C738.062 616.73 738.684 611.441 739.504 607.292L739.505 607.293C744.437 583.083 751.91 559.465 761.8 536.824C764.01 531.762 766.176 526.262 769.259 521.769L769.559 521.338C774.25 514.736 782.04 512.6 789.852 511.26C797.658 509.925 808.974 509.267 819.973 510.177C830.995 511.09 841.596 513.571 848.055 518.436C848.54 518.801 849.266 519.364 849.861 519.997C850.158 520.312 850.409 520.632 850.581 520.939C850.753 521.248 850.827 521.511 850.818 521.726C850.818 521.728 850.817 521.737 850.814 521.752C850.81 521.771 850.805 521.798 850.796 521.833C850.777 521.902 850.746 521.992 850.705 522.104C850.622 522.328 850.499 522.618 850.34 522.968C850.021 523.668 849.566 524.585 849.012 525.654C847.907 527.791 846.422 530.516 844.89 533.297C841.837 538.837 838.574 544.631 837.793 546.328V546.329C831.997 558.933 820.824 586.369 811.652 613.858C807.066 627.603 802.976 641.371 800.309 653.31C797.731 664.854 796.465 674.758 797.409 681.283L797.507 681.904C797.868 684.003 798.708 686.495 800.838 687.718L800.84 687.719C802.22 688.505 804.194 688.484 805.588 688.142C808.546 687.417 811.353 685.289 813.821 682.847C816.297 680.397 818.487 677.571 820.198 675.38L820.199 675.38C842.514 646.822 859.21 602.137 873.127 567.626L874.465 564.319C878.888 553.442 885.193 536.217 891.152 526.628C893.471 522.89 897.321 520.192 901.674 518.191C906.022 516.192 910.825 514.908 914.996 513.971C922.639 512.261 933.297 512.037 943.732 513.351C954.173 514.666 964.312 517.51 970.95 521.88V521.881C971.551 522.281 972.351 522.915 972.988 523.644C973.64 524.391 974.043 525.149 974.024 525.806C974.022 525.88 973.989 526.05 973.893 526.345C973.802 526.627 973.667 526.983 973.492 527.406C973.141 528.252 972.639 529.343 972.029 530.606C970.81 533.131 969.17 536.319 967.469 539.562C964.075 546.033 960.428 552.747 959.462 554.763C953.71 566.743 942.265 592.685 932.926 618.535C928.256 631.459 924.109 644.371 921.465 655.509C920.142 661.078 919.194 666.212 918.744 670.688C918.295 675.157 918.34 679.001 919.027 681.976V681.977C919.541 684.189 920.538 686.682 922.816 687.905V687.906C925.108 689.14 927.846 688.635 930.025 687.921H930.026C933.888 686.651 938.265 683.434 942.725 679.152C947.197 674.859 951.798 669.45 956.104 663.733C964.711 652.308 972.188 639.593 975.135 632H975.136C976.937 627.354 978.222 621.388 979.359 615.355C980.5 609.302 981.488 603.187 982.699 598.167L982.7 598.168C989.479 570.679 997.882 543.613 1007.86 517.118L1008.83 514.555C1011.3 508.099 1013.86 500.915 1016.8 494.716V494.715C1018.27 491.627 1021.01 489.56 1024.25 488.026C1027.49 486.492 1031.17 485.522 1034.48 484.588C1043.1 482.351 1056.67 481.454 1069.78 482.792C1076.33 483.46 1082.74 484.685 1088.35 486.572C1093.84 488.418 1098.52 490.888 1101.81 494.06C1097.6 506.125 1091.6 518.058 1086.48 529.869V529.87C1079.3 546.439 1066.77 575.071 1055.95 603.603C1050.55 617.869 1045.57 632.118 1041.9 644.827C1038.24 657.525 1035.87 668.725 1035.72 676.88C1035.69 678.476 1035.67 680.294 1035.99 682.015C1036.3 683.742 1036.96 685.418 1038.33 686.701H1038.33C1039.94 688.218 1042.1 688.728 1044.19 688.583L1044.6 688.545C1049.29 688.023 1054.44 684.769 1059.62 680.057C1064.82 675.33 1070.12 669.067 1075.11 662.4C1085.08 649.065 1093.86 634.055 1098.14 626.329H1098.14C1099.9 623.151 1101.53 619.471 1103.26 615.948C1104.98 612.441 1106.8 609.066 1108.98 606.348C1109.27 606.213 1109.48 606.109 1109.59 606.053C1109.66 606.019 1109.7 606.005 1109.72 606C1109.73 606.003 1109.78 606.016 1109.94 606.071C1110.1 606.127 1110.33 606.205 1110.67 606.303C1112.19 608.094 1112.56 610.275 1112.73 612.739C1113.08 617.756 1111.64 624.239 1109.04 631.43C1106.44 638.61 1102.69 646.447 1098.46 654.155C1090 669.574 1079.63 684.43 1072.7 692.409C1059.31 707.852 1041.21 722.95 1020.08 724.327C1009.32 725.027 999.211 722.26 991.111 715.031H991.11C977.509 702.897 974.672 683.975 973.693 666.531L973.594 664.777L972.755 666.32C965.185 680.228 954.038 695.828 940.404 707.356C926.77 718.884 910.7 726.3 893.253 723.969C882.533 722.536 873.884 717.462 867.455 708.851C854.937 692.086 852.895 665.558 855.674 645.405L854.726 645.122C845.601 664.31 836.557 680.406 823.368 697.698C815.332 708.235 803.856 717.647 791.395 722.033C778.953 726.411 765.544 725.779 753.53 716.272C740.292 705.799 735.846 687.437 734.276 670.884L734.142 669.468L733.361 670.657C720.438 690.3 704.942 710.492 682.891 720.041C672.678 724.464 659.639 726.462 649.14 722.239C638.847 718.095 631.793 708.984 627.616 698.894C617.623 674.759 619.661 639.082 626.183 603.335C632.7 567.617 643.67 531.944 651.437 507.884C657.847 488.03 664.569 467.899 672.539 448.63C680.59 444.492 690.935 443.703 700.01 442.941H700.018L700.028 442.939Z" stroke="url(#paint2_linear_5_9)" style="mix-blend-mode:hard-light"></path>
<path d="M1075.65 384.087C1098.8 381.632 1119.59 398.325 1122.19 421.458C1124.79 444.59 1108.22 465.482 1085.11 468.226C1062.15 470.951 1041.33 454.77 1038.18 432.004L1038.04 430.915C1035.42 407.577 1052.3 386.564 1075.65 384.087Z" fill="#8A35CA"></path>
<path d="M1075.65 384.087C1098.8 381.632 1119.59 398.325 1122.19 421.458C1124.79 444.59 1108.22 465.482 1085.11 468.226C1062.15 470.951 1041.33 454.77 1038.18 432.004L1038.04 430.915C1035.42 407.577 1052.3 386.564 1075.65 384.087Z" stroke="url(#paint3_linear_5_9)" style="mix-blend-mode:hard-light"></path>
</g>
<defs>
<filter id="filter0_d_5_9" x="309.884" y="340.599" width="816.571" height="393.043" filterUnits="userSpaceOnUse" color-interpolation-filters="sRGB">
<feFlood flood-opacity="0" result="BackgroundImageFix"></feFlood>
<feColorMatrix in="SourceAlpha" type="matrix" values="0 0 0 0 0 0 0 0 0 0 0 0 0 0 0 0 0 0 127 0" result="hardAlpha"></feColorMatrix>
<feOffset dy="5"></feOffset>
<feGaussianBlur stdDeviation="1.75"></feGaussianBlur>
<feComposite in2="hardAlpha" operator="out"></feComposite>
<feColorMatrix type="matrix" values="0 0 0 0 0 0 0 0 0 0 0 0 0 0 0 0 0 0 0.5 0"></feColorMatrix>
<feBlend mode="normal" in2="BackgroundImageFix" result="effect1_dropShadow_5_9"></feBlend>
<feBlend mode="normal" in="SourceGraphic" in2="effect1_dropShadow_5_9" result="shape"></feBlend>
</filter>
<linearGradient id="paint0_linear_5_9" x1="1436" y1="4.49994" x2="-0.000127228" y2="1024" gradientUnits="userSpaceOnUse">
<stop offset="0.000787168" stop-color="#6D1AAD"></stop>
<stop offset="1" stop-color="#460E71"></stop>
</linearGradient>
<linearGradient id="paint1_linear_5_9" x1="564.833" y1="340.599" x2="564.833" y2="724.963" gradientUnits="userSpaceOnUse">
<stop stop-color="white"></stop>
<stop offset="1" stop-color="#2D0C46"></stop>
</linearGradient>
<linearGradient id="paint2_linear_5_9" x1="866.741" y1="441.81" x2="866.741" y2="725.141" gradientUnits="userSpaceOnUse">
<stop stop-color="white"></stop>
<stop offset="1" stop-color="#2D0C46"></stop>
</linearGradient>
<linearGradient id="paint3_linear_5_9" x1="1080.11" y1="383.347" x2="1080.11" y2="469.026" gradientUnits="userSpaceOnUse">
<stop stop-color="white"></stop>
<stop offset="1" stop-color="#2D0C46"></stop>
</linearGradient>
</defs>
</svg>